<?xml version="1.0" ?><!DOCTYPE svg  PUBLIC '-//W3C//DTD SVG 1.1//EN'  'http://www.w3.org/Graphics/SVG/1.1/DTD/svg11.dtd'><svg enable-background="new 0 0 141.73 141.73" height="141.73px" id="Warstwa_1" version="1.1" viewBox="0 0 141.73 141.73" width="141.73px" xml:space="preserve" xmlns="http://www.w3.org/2000/svg" xmlns:xlink="http://www.w3.org/1999/xlink"><g><path d="M101.648,40.093c-8.22-8.22-19.149-12.747-30.773-12.747s-22.553,4.526-30.772,12.746   S27.355,59.24,27.355,70.865s4.527,22.554,12.747,30.773s19.149,12.746,30.774,12.746c11.624,0,22.553-4.526,30.772-12.746   C118.617,84.67,118.616,57.061,101.648,40.093z M100.235,100.225c-7.842,7.842-18.269,12.16-29.358,12.16   c-11.091,0-21.518-4.318-29.36-12.16c-7.842-7.843-12.161-18.269-12.161-29.359s4.319-21.517,12.161-29.359   c7.842-7.842,18.269-12.16,29.358-12.16s21.517,4.319,29.359,12.161C116.423,57.695,116.423,84.036,100.235,100.225z" fill="#575756"/><path d="M81.491,62.674c-4.42,0-7.283,3.106-10.316,6.396c-0.098,0.106-0.2,0.216-0.299,0.323   c-0.1-0.107-0.202-0.218-0.301-0.324c-3.032-3.289-5.896-6.395-10.315-6.395c-4.975,0-9.022,3.674-9.022,8.189   s4.048,8.189,9.022,8.189c4.525,0,7.455-3.225,10.556-6.639l0.061-0.066l0.059,0.064c3.102,3.415,6.03,6.641,10.557,6.641   c4.975,0,9.022-3.674,9.022-8.189S86.466,62.674,81.491,62.674z M69.335,71.069c-3.036,3.343-5.435,5.983-9.075,5.983   c-3.872,0-7.022-2.776-7.022-6.189s3.15-6.189,7.022-6.189c3.543,0,5.883,2.537,8.845,5.75c0.137,0.148,0.274,0.297,0.412,0.446   L69.335,71.069z M81.491,77.053c-3.641,0-6.039-2.641-9.076-5.984l-0.18-0.198c0.138-0.149,0.274-0.297,0.41-0.445   c2.963-3.213,5.303-5.751,8.846-5.751c3.872,0,7.022,2.776,7.022,6.189S85.363,77.053,81.491,77.053z" fill="#575756"/></g></svg>